HIERARCHY
ROOT Hips
{
    OFFSET   0.000000   0.000000   0.000000
    CHANNELS 6 Xposition Yposition Zposition Zrotation Xrotation Yrotation
    JOINT Chest
    {
        OFFSET   0.000000   8.007230   0.000000
        CHANNELS 3 Zrotation Xrotation Yrotation
        JOINT Chest2
        {
            OFFSET   0.000000  22.077100   0.000000
            CHANNELS 3 Zrotation Xrotation Yrotation
            JOINT Neck
            {
                OFFSET   0.000000  23.254800  -0.000021
                CHANNELS 3 Zrotation Xrotation Yrotation
                JOINT Head
                {
                    OFFSET   0.000000  14.370000   1.956610
                    CHANNELS 3 Zrotation Xrotation Yrotation
                    End Site
                    {
                        OFFSET   0.000000  19.566000   0.000000
                    }
                }
            }
            JOINT LeftCollar
            {
                OFFSET   3.911900  19.017000  -0.467063
                CHANNELS 3 Zrotation Xrotation Yrotation
                JOINT LeftShoulder
                {
                    OFFSET  10.383700   0.000000   0.000000
                    CHANNELS 3 Zrotation Xrotation Yrotation
                    JOINT LeftElbow
                    {
                        OFFSET  26.662100   0.001529   0.000325
                        CHANNELS 3 Zrotation Xrotation Yrotation
                        JOINT LeftWrist
                        {
                            OFFSET  28.869000  -0.000011  -0.000096
                            CHANNELS 3 Zrotation Xrotation Yrotation
                            JOINT LeftFinger0
                            {
                                OFFSET   2.044650  -2.323460   3.252850
                                CHANNELS 3 Zrotation Xrotation Yrotation
                                JOINT LeftFinger01
                                {
                                    OFFSET   3.088130   0.000000   0.000000
                                    CHANNELS 3 Zrotation Xrotation Yrotation
                                    JOINT LeftFinger02
                                    {
                                        OFFSET   2.639460   0.000000   0.000000
                                        CHANNELS 3 Zrotation Xrotation Yrotation
                                        End Site
                                        {
                                            OFFSET   2.582190   0.000000   0.000000
                                        }
                                    }
                                }
                            }
                            JOINT LeftFinger1
                            {
                                OFFSET   8.364480   0.000000   3.252850
                                CHANNELS 3 Zrotation Xrotation Yrotation
                                JOINT LeftFinger11
                                {
                                    OFFSET   4.646930   0.000000   0.000000
                                    CHANNELS 3 Zrotation Xrotation Yrotation
                                    JOINT LeftFinger12
                                    {
                                        OFFSET   2.323460   0.000000   0.000000
                                        CHANNELS 3 Zrotation Xrotation Yrotation
                                        End Site
                                        {
                                            OFFSET   2.273050   0.000000   0.000000
                                        }
                                    }
                                }
                            }
                            JOINT LeftFinger2
                            {
                                OFFSET   8.364480   0.000016   1.078090
                                CHANNELS 3 Zrotation Xrotation Yrotation
                                JOINT LeftFinger21
                                {
                                    OFFSET   5.111620   0.000000   0.000000
                                    CHANNELS 3 Zrotation Xrotation Yrotation
                                    JOINT LeftFinger22
                                    {
                                        OFFSET   2.788160   0.000017   0.000000
                                        CHANNELS 3 Zrotation Xrotation Yrotation
                                        End Site
                                        {
                                            OFFSET   2.727660   0.000000   0.000000
                                        }
                                    }
                                }
                            }
                            JOINT LeftFinger3
                            {
                                OFFSET   7.899780   0.000015  -1.078090
                                CHANNELS 3 Zrotation Xrotation Yrotation
                                JOINT LeftFinger31
                                {
                                    OFFSET   4.646920   0.000000   0.000000
                                    CHANNELS 3 Zrotation Xrotation Yrotation
                                    JOINT LeftFinger32
                                    {
                                        OFFSET   2.323470   0.000000   0.000000
                                        CHANNELS 3 Zrotation Xrotation Yrotation
                                        End Site
                                        {
                                            OFFSET   2.273050   0.000000   0.000000
                                        }
                                    }
                                }
                            }
                            JOINT LeftFinger4
                            {
                                OFFSET   7.435090   0.000000  -3.252850
                                CHANNELS 3 Zrotation Xrotation Yrotation
                                JOINT LeftFinger41
                                {
                                    OFFSET   3.717550   0.000000   0.000000
                                    CHANNELS 3 Zrotation Xrotation Yrotation
                                    JOINT LeftFinger42
                                    {
                                        OFFSET   1.858760   0.000000   0.000000
                                        CHANNELS 3 Zrotation Xrotation Yrotation
                                        End Site
                                        {
                                            OFFSET   1.818440   0.000000   0.000000
                                        }
                                    }
                                }
                            }
                        }
                    }
                }
            }
            JOINT RightCollar
            {
                OFFSET  -3.911900  19.017000  -0.467062
                CHANNELS 3 Zrotation Xrotation Yrotation
                JOINT RightShoulder
                {
                    OFFSET -10.383700   0.000015   0.000000
                    CHANNELS 3 Zrotation Xrotation Yrotation
                    JOINT RightElbow
                    {
                        OFFSET -26.662100   0.001341   0.000385
                        CHANNELS 3 Zrotation Xrotation Yrotation
                        JOINT RightWrist
                        {
                            OFFSET -28.869000   0.000025  -0.000080
                            CHANNELS 3 Zrotation Xrotation Yrotation
                            JOINT RightFinger0
                            {
                                OFFSET  -2.044650  -2.323490   3.252850
                                CHANNELS 3 Zrotation Xrotation Yrotation
                                JOINT RightFinger01
                                {
                                    OFFSET  -3.088130   0.000000   0.000000
                                    CHANNELS 3 Zrotation Xrotation Yrotation
                                    JOINT RightFinger02
                                    {
                                        OFFSET  -2.639460   0.000000   0.000000
                                        CHANNELS 3 Zrotation Xrotation Yrotation
                                        End Site
                                        {
                                            OFFSET  -2.582190   0.000000   0.000000
                                        }
                                    }
                                }
                            }
                            JOINT RightFinger1
                            {
                                OFFSET  -8.364480   0.000000   3.252850
                                CHANNELS 3 Zrotation Xrotation Yrotation
                                JOINT RightFinger11
                                {
                                    OFFSET  -4.646930   0.000000   0.000000
                                    CHANNELS 3 Zrotation Xrotation Yrotation
                                    JOINT RightFinger12
                                    {
                                        OFFSET  -2.323470   0.000000   0.000000
                                        CHANNELS 3 Zrotation Xrotation Yrotation
                                        End Site
                                        {
                                            OFFSET  -2.273050   0.000000   0.000000
                                        }
                                    }
                                }
                            }
                            JOINT RightFinger2
                            {
                                OFFSET  -8.364480   0.000000   1.078090
                                CHANNELS 3 Zrotation Xrotation Yrotation
                                JOINT RightFinger21
                                {
                                    OFFSET  -5.111610   0.000000   0.000000
                                    CHANNELS 3 Zrotation Xrotation Yrotation
                                    JOINT RightFinger22
                                    {
                                        OFFSET  -2.788160   0.000000   0.000000
                                        CHANNELS 3 Zrotation Xrotation Yrotation
                                        End Site
                                        {
                                            OFFSET  -2.727660   0.000000   0.000000
                                        }
                                    }
                                }
                            }
                            JOINT RightFinger3
                            {
                                OFFSET  -7.899780   0.000000  -1.078090
                                CHANNELS 3 Zrotation Xrotation Yrotation
                                JOINT RightFinger31
                                {
                                    OFFSET  -4.646920   0.000000   0.000000
                                    CHANNELS 3 Zrotation Xrotation Yrotation
                                    JOINT RightFinger32
                                    {
                                        OFFSET  -2.323470   0.000000   0.000000
                                        CHANNELS 3 Zrotation Xrotation Yrotation
                                        End Site
                                        {
                                            OFFSET  -2.273050   0.000000   0.000000
                                        }
                                    }
                                }
                            }
                            JOINT RightFinger4
                            {
                                OFFSET  -7.435090   0.000000  -3.252850
                                CHANNELS 3 Zrotation Xrotation Yrotation
                                JOINT RightFinger41
                                {
                                    OFFSET  -3.717550   0.000000   0.000000
                                    CHANNELS 3 Zrotation Xrotation Yrotation
                                    JOINT RightFinger42
                                    {
                                        OFFSET  -1.858770   0.000000   0.000000
                                        CHANNELS 3 Zrotation Xrotation Yrotation
                                        End Site
                                        {
                                            OFFSET  -1.818440   0.000000   0.000000
                                        }
                                    }
                                }
                            }
                        }
                    }
                }
            }
        }
    }
    JOINT LeftHip
    {
        OFFSET   9.783010   0.000000   0.000000
        CHANNELS 3 Zrotation Xrotation Yrotation
        JOINT LeftKnee
        {
            OFFSET   0.000070 -41.789100   0.000028
            CHANNELS 3 Zrotation Xrotation Yrotation
            JOINT LeftAnkle
            {
                OFFSET   0.000087 -41.133200  -0.000100
                CHANNELS 3 Zrotation Xrotation Yrotation
                JOINT LeftToe
                {
                    OFFSET   0.000000  -6.358960  14.674500
                    CHANNELS 3 Zrotation Xrotation Yrotation
                    End Site
                    {
                        OFFSET   0.000000   0.000000   3.913200
                    }
                }
            }
        }
    }
    JOINT RightHip
    {
        OFFSET  -9.783020   0.000000   0.000000
        CHANNELS 3 Zrotation Xrotation Yrotation
        JOINT RightKnee
        {
            OFFSET   0.000044 -41.789100  -0.000870
            CHANNELS 3 Zrotation Xrotation Yrotation
            JOINT RightAnkle
            {
                OFFSET  -0.000090 -41.133200  -0.000245
                CHANNELS 3 Zrotation Xrotation Yrotation
                JOINT RightToe
                {
                    OFFSET   0.000000  -6.358960  14.674500
                    CHANNELS 3 Zrotation Xrotation Yrotation
                    End Site
                    {
                        OFFSET   0.000000   0.000000   3.913200
                    }
                }
            }
        }
    }
}
MOTION
Frames: 4
Frame Time:   0.016667
 -0.934909  90.129300   0.839312  -1.847260  -1.002250  -0.847246   0.586784   1.716430  -0.832886   1.199280   3.424070  -1.684460   3.213010   1.178170  -0.057473   5.283400   2.366890   5.425780  -1.273240   0.362418   4.597400 -73.756900  17.483100  -0.091937  -4.058970  -3.223190 -14.923900  15.582700   2.487000  10.730900  44.078600  34.836400 -74.882900 -18.165600   0.001562   0.001250  -4.082780   0.004634   0.000963 -32.514100  10.266600 -15.621500 -27.757800  -0.000092   0.006663 -19.430400   0.001597  -0.000000 -29.106200   0.963091  -1.729270 -43.681000   0.000461   0.003422 -29.091600   0.000072   0.002120 -28.184900   0.934942  -1.744650 -33.348900  -0.000159   0.001980 -22.210300  -0.007256   0.002852 -31.161300   0.273956  -0.452974 -46.742300   0.004957   0.002474 -31.130400  -0.003342   0.003137   8.694470   2.345430   3.682310  68.998800   9.476030  -1.168420   2.865780  -6.863970  11.191800 -15.429100 -15.968900   1.409690 -36.274300  28.230400  61.639200  31.821800   0.001911  -0.001144  10.907100   0.002265  -0.003486  30.602500   1.774420   2.996880  25.076400  -0.004133   0.002328  17.546300   0.002775   0.002054  27.996400  -1.471210  -2.764890  32.210200  -0.005201   0.009738  21.452000   0.000984   0.008849  28.231800  -2.793420  -5.197600  34.727800  -0.005710   0.000072  23.128700  -0.003420  -0.000215  38.638600  -3.685350  -4.606660  58.179900  -0.005963   0.001168  38.747800   0.000745  -0.004087   2.091430   2.832260   0.623439   0.173830   1.109940  11.044100  -6.056320  -4.268590   3.640410   0.000000   0.000000  -0.000000   2.636010   2.205840  -8.229990  -0.391783   1.791380  -9.963350  -9.873450   1.303050   0.036588   0.000000   0.000000  -0.000000
 -0.923003  90.129300   0.843809  -1.847280  -1.020020  -0.834729   0.586765   1.729170  -0.831022   1.199380   3.449550  -1.680870   3.212020   1.183930  -0.057527   5.281440   2.378440   5.438290  -1.274920   0.362654   4.597400 -73.748000  17.496400  -0.104327  -4.061250  -3.254200 -14.924400  15.587500   2.462640  10.726500  44.061700  34.835500 -74.891500 -18.177500   0.001560   0.001245  -4.088710   0.004637   0.000952 -32.539900  10.265100 -15.604700 -27.777400  -0.000091   0.006661 -19.444200   0.001605  -0.000000 -29.112000   0.966426  -1.736070 -43.689900   0.000461   0.003424 -29.097600   0.000071   0.002121 -28.184500   0.938094  -1.751600 -33.369500  -0.000155   0.001981 -22.224000  -0.007256   0.002853 -31.169600   0.383385  -0.633692 -46.756800   0.004959   0.002476 -31.140000  -0.003345   0.003139   8.694860   2.337040   3.682280  68.994600   9.491080  -1.165910   2.868700  -6.870740  11.205900 -15.427200 -15.956500   1.418260 -36.283500  28.246400  61.634500  31.828500   0.001920  -0.001114  10.912200   0.002263  -0.003486  30.600300   1.786150   3.016920  25.075000  -0.004077   0.002270  17.547700   0.002768   0.002005  27.998300  -1.468480  -2.759340  32.221700  -0.004916   0.009659  21.459700   0.000923   0.008769  28.233100  -2.795590  -5.198200  34.740300  -0.005475   0.000072  23.137000  -0.003308  -0.000213  38.643100  -3.688300  -4.607050  58.187100  -0.005955   0.001165  38.752600   0.000746  -0.004149   2.080050   2.853700   0.623451   0.171230   1.103020  11.044200  -6.047380  -4.267810   3.635080   0.000000   0.000000   0.000000   2.627850   2.221150  -8.230600  -0.389100   1.806850  -9.963410  -9.868050   1.295230   0.022055   0.000000   0.000000   0.000000
 -0.902072  90.129200   0.851953  -1.847280  -1.051100  -0.813093   0.586702   1.751870  -0.825893   1.199450   3.494990  -1.670870   3.208290   1.192710  -0.057610   5.276870   2.396060   5.450820  -1.278940   0.362890   4.597350 -73.732400  17.520400  -0.124612  -4.066190  -3.308530 -14.925400  15.594300   2.428500  10.719000  44.042300  34.837400 -74.907200 -18.197500   0.001551   0.001235  -4.098730   0.004640   0.000934 -32.581400  10.258600 -15.571700 -27.808100  -0.000085   0.006654 -19.465700   0.001619   0.000000 -29.121700   0.971288  -1.742880 -43.704700   0.000462   0.003430 -29.107400   0.000062   0.002126 -28.184000   0.942639  -1.758550 -33.397500  -0.000142   0.001986 -22.242700  -0.007254   0.002859 -31.177300   0.492802  -0.814418 -46.771300   0.004965   0.002485 -31.149700  -0.003353   0.003146   8.695650   2.322470   3.682170  68.986100   9.524210  -1.159260   2.873290  -6.880530  11.228600 -15.424000 -15.944000   1.431480 -36.294000  28.263100  61.630400  31.839300   0.001929  -0.001083  10.919700   0.002261  -0.003491  30.598000   1.797880   3.036950  25.073700  -0.004021   0.002172  17.551600   0.002750   0.001924  28.003800  -1.465760  -2.753800  32.256700  -0.004631   0.009581  21.483000   0.000802   0.008690  28.237500  -2.802690  -5.202340  34.783400  -0.005240   0.000072  23.165700  -0.003197  -0.000210  38.659400  -3.698280  -4.609730  58.212400  -0.005936   0.001163  38.769500   0.000746  -0.004254   2.060810   2.891780   0.623475   0.166749   1.090260  11.044400  -6.033170  -4.266180   3.623360  -0.000000   0.000000  -0.000000   2.613650   2.249850  -8.231290  -0.385040   1.831400  -9.963510  -9.857110   1.281800  -0.002485  -0.000000   0.000000  -0.000000
 -0.882932  90.129100   0.859767  -1.847240  -1.078630  -0.794181   0.586551   1.773130  -0.817538   1.199230   3.537600  -1.654390   3.202020   1.197730  -0.057653   5.267550   2.406200   5.444980  -1.284790   0.362833   4.590860 -73.715700  17.543600  -0.139871  -4.073870  -3.358200 -14.938500  15.596900   2.417930  10.711200  44.048700  34.851100 -74.925800 -18.211600   0.001530   0.001223  -4.105780   0.004639   0.000912 -32.614200  10.239700 -15.523600 -27.828700  -0.000040   0.006635 -19.480100   0.001627  -0.000000 -29.128600   0.973491  -1.741030 -43.715200   0.000466   0.003442 -29.114400   0.000027   0.002135 -28.183800   0.944553  -1.756800 -33.403600  -0.000119   0.002000 -22.246800  -0.007247   0.002875 -31.176200   0.475883  -0.786473 -46.769100   0.004977   0.002505 -31.148300  -0.003367   0.003157   8.698480   2.310370   3.674180  68.974900   9.569500  -1.147400   2.876280  -6.884850  11.244600 -15.421300 -15.951200   1.439180 -36.289600  28.263700  61.631200  31.848800   0.001919  -0.001105  10.923700   0.002262  -0.003506  30.608000   1.797200   3.034280  25.081900  -0.004148   0.002074  17.558600   0.002725   0.001849  28.013000  -1.475810  -2.772110  32.322200  -0.006738   0.009600  21.526600   0.000644   0.008710  28.245700  -2.817410  -5.225290  34.870500  -0.005299   0.000071  23.223700  -0.003224  -0.000211  38.691500  -3.719290  -4.628200  58.262700  -0.005906   0.001165  38.803000   0.000746  -0.004358   2.044390   2.926530   0.623509   0.163325   1.077870  11.044500  -6.023440  -4.264390   3.607230  -0.000000   0.000000   0.000000   2.600440   2.278830  -8.227350  -0.383322   1.849460  -9.966710  -9.843560   1.269040  -0.021595  -0.000000   0.000000   0.000000
